# xmcd CD database file
#
# Track frame offsets:
#	150
#	36666
#	92220
#	143765
#	173184
#	212948
#	242445
#	288477
#
# Disc length: 4320 seconds
#
# Revision: 1
# Processed by: cddbd v1.5.2PL0 Copyright (c) Steve Scherf et al.
# Submitted via: CDex 1.51
#
DISCID=7810de08
DTITLE=Arveheaim - Berke upscalenten - Scope
DYEAR=2009
DGENRE=Jazz
TTITLE0=Medium blue
TTITLE1=Light grey ( partley cloudy )
TTITLE2=Rust-red
TTITLE3=Suite no 1 for ten musicians ( somtimes )
TTITLE4=I wonder
TTITLE5=Where
TTITLE6=Do we go
TTITLE7=From here
EXTD=YEAR: 2009
EXTT0=
EXTT1=
EXTT2=
EXTT3=
EXTT4=
EXTT5=
EXTT6=
EXTT7=
PLAYORDER=
